<svg xmlns="http://www.w3.org/2000/svg" width="16" height="16" fill="none" xmlns:v="https://vecta.io/nano"><g clip-path="url(#A)"><path d="M8 0C3.584 0 0 3.584 0 8s3.584 8 8 8a8.01 8.01 0 0 0 8-8 8.01 8.01 0 0 0-8-8zm5.284 3.688a6.8 6.8 0 0 1 1.544 4.252c-.226-.043-2.482-.503-4.755-.217-.052-.113-.095-.234-.148-.356a20.35 20.35 0 0 0-.451-.989c2.516-1.024 3.662-2.499 3.809-2.69zM8 1.18c1.735 0 3.323.651 4.529 1.718-.121.174-1.154 1.553-3.584 2.464-1.119-2.056-2.36-3.74-2.551-4A6.95 6.95 0 0 1 8 1.18zm-2.907.642A43.12 43.12 0 0 1 7.627 5.77c-3.193.85-6.013.833-6.317.833.442-2.117 1.874-3.879 3.783-4.781zM1.163 8.009V7.8a24.97 24.97 0 0 0 7.02-.972c.2.382.382.772.555 1.163l-.269.078c-3.523 1.137-5.397 4.243-5.553 4.503-1.085-1.206-1.753-2.811-1.753-4.564zM8 14.837c-1.579 0-3.037-.538-4.191-1.44.121-.252 1.51-2.924 5.362-4.269.017-.009.026-.009.043-.017.963 2.49 1.354 4.581 1.458 5.18A6.72 6.72 0 0 1 8 14.837zm3.809-1.171c-.069-.417-.434-2.412-1.328-4.868a9.98 9.98 0 0 1 4.252.295c-.295 1.9-1.388 3.54-2.924 4.573z" fill="#000"/></g><defs><clipPath id="A"><path fill="#fff" d="M0 0h16v16H0z"/></clipPath></defs></svg>