<svg xmlns="http://www.w3.org/2000/svg" width="16" height="16" fill="none" xmlns:v="https://vecta.io/nano"><g clip-path="url(#A)"><path d="M13.631 13.635h-2.369V9.922c0-.885-.018-2.025-1.235-2.025-1.235 0-1.424.963-1.424 1.959v3.778H6.234V6H8.51v1.041h.031c.318-.6 1.091-1.233 2.247-1.233 2.401 0 2.845 1.58 2.845 3.637l-.001 4.191zM3.558 4.955c-.763 0-1.375-.617-1.375-1.377s.613-1.375 1.375-1.375 1.376.617 1.376 1.375a1.38 1.38 0 0 1-1.376 1.377zm1.188 8.679H2.37V6h2.376v7.635zM14.817 0H1.181C.528 0 0 .516 0 1.153v13.695C0 15.485.528 16 1.181 16h13.634c.652 0 1.185-.515 1.185-1.153V1.153C16 .516 15.467 0 14.815 0h.002z" fill="#000"/></g><defs><clipPath id="A"><path fill="#fff" d="M0 0h16v16H0z"/></clipPath></defs></svg>