<svg xmlns="http://www.w3.org/2000/svg" width="100" height="36" fill="none" xmlns:v="https://vecta.io/nano"><g clip-path="url(#A)"><path d="M42.999 27.491l1.801-4.345-4.278-10.556h2.599l2.886 7.707 2.927-7.707h2.538l-6.058 14.902h-2.415zm8.985-9.572c0-1.572.498-2.894 1.494-3.966s2.265-1.609 3.807-1.609c1.46 0 2.623.413 3.49 1.24s1.382 1.78 1.545 2.859h-2.497c-.15-.588-.454-1.059-.911-1.414s-1.006-.533-1.648-.533c-.86 0-1.549.318-2.067.953s-.778 1.459-.778 2.47.259 1.831.778 2.46 1.208.943 2.067.943c.641 0 1.191-.178 1.648-.533s.761-.827.911-1.414h2.497c-.164 1.079-.679 2.033-1.545 2.859s-2.03 1.24-3.49 1.24c-1.542 0-2.811-.536-3.807-1.609s-1.494-2.388-1.494-3.946zm17.09 5.555c-1.637 0-2.964-.54-3.981-1.619s-1.525-2.391-1.525-3.935.508-2.859 1.525-3.946 2.344-1.63 3.981-1.63c1.651 0 2.985.543 4.001 1.63s1.525 2.402 1.525 3.946-.508 2.856-1.525 3.935-2.35 1.619-4.001 1.619zm-3.07-5.555c0 1.011.29 1.831.87 2.46s1.313.943 2.2.943c.901 0 1.641-.314 2.221-.943s.87-1.448.87-2.46c0-1.025-.29-1.852-.87-2.48s-1.32-.943-2.221-.943c-.887 0-1.62.314-2.2.943s-.87 1.455-.87 2.48zm18.462-3.936V7.855h2.436v15.373h-2.251v-1.517c-.723 1.175-1.917 1.763-3.582 1.763-1.515 0-2.712-.53-3.592-1.589s-1.32-2.381-1.32-3.966.44-2.911 1.32-3.977 2.078-1.599 3.592-1.599c1.542 0 2.674.547 3.398 1.64zm.102 3.936c0-.998-.269-1.817-.808-2.46s-1.266-.963-2.18-.963c-.901 0-1.624.321-2.169.963s-.819 1.462-.819 2.46c0 .97.273 1.78.819 2.429s1.269.974 2.169.974c.914 0 1.641-.321 2.18-.963s.808-1.455.808-2.439zM15.483 0v8.681l-7.988 4.625 9.75 5.64 15.435-8.943v8.69L3.603 35.541l-.037.021-.04-.026L0 33.298v-8.46l3.557 2.041 6.085-3.526L0 17.647V8.97L15.483 0zm78.972 12.343c1.555 0 2.814.523 3.776 1.568s1.443 2.361 1.443 3.946l-.02.758h-8.085c.096.847.403 1.52.921 2.019s1.201.748 2.047.748a2.86 2.86 0 0 0 1.514-.41 2.29 2.29 0 0 0 .962-1.107h2.456a4.96 4.96 0 0 1-1.832 2.613c-.894.663-1.948.994-3.162.994-1.583 0-2.862-.526-3.838-1.578s-1.463-2.384-1.463-3.997c0-1.572.491-2.89 1.474-3.956s2.251-1.599 3.807-1.599zm0 1.988c-.764 0-1.399.225-1.904.676-.463.413-.765.953-.907 1.619l-.035.185h5.649c-.109-.751-.409-1.353-.901-1.804s-1.126-.676-1.903-.676z" fill="#000"/></g><defs><clipPath id="A"><path fill="#fff" d="M0 0h100v36H0z"/></clipPath></defs></svg>