<svg xmlns="http://www.w3.org/2000/svg" width="20" height="20" fill="none" xmlns:v="https://vecta.io/nano"><path fill-rule="evenodd" d="M1.875 10c0-4.487 3.638-8.125 8.125-8.125S18.125 5.513 18.125 10 14.488 18.125 10 18.125 1.875 14.488 1.875 10zm11.133-1.512c.05-.067.086-.143.106-.223s.024-.165.011-.247-.042-.161-.085-.232-.101-.132-.169-.181-.145-.083-.226-.101-.165-.02-.247-.006-.16.045-.23.091-.13.104-.177.173l-2.697 3.775-1.353-1.353c-.118-.11-.275-.17-.437-.168s-.316.068-.431.183-.18.269-.183.431.057.319.168.437l1.875 1.875c.064.064.142.113.227.145s.176.043.266.036.178-.034.257-.079.147-.106.2-.18l3.125-4.375z" fill="#000"/></svg>