<svg xmlns="http://www.w3.org/2000/svg" width="16" height="16" fill="none" xmlns:v="https://vecta.io/nano"><path d="M8.027 2.334h.032l.245.001 2.625.05.364.013c1.216.047 2.427.13 2.958.273a2.01 2.01 0 0 1 1.415 1.424c.314 1.18.333 3.563.334 3.848v.056c-.001.285-.02 2.668-.334 3.848a2.01 2.01 0 0 1-1.415 1.424c-.531.143-1.742.226-2.958.273l-.364.013-2.769.05h-.1-.032-.053c-.009 0-.02 0-.032 0h-.1c-.863-.003-4.977-.035-6.092-.336a2.01 2.01 0 0 1-1.415-1.424C.03 10.704.003 8.435 0 8.032v-.124c.003-.403.03-2.672.334-3.814A2.01 2.01 0 0 1 1.749 2.67c1.062-.286 4.844-.329 5.947-.335l.245-.001h.032.053zM6.364 5.591v4.758l4.182-2.379-4.182-2.379z" fill="#000"/></svg>